<?xml version="1.0" encoding="UTF-8"?>
<svg id="Layer_1" xmlns="http://www.w3.org/2000/svg" version="1.1" viewBox="0 0 800 800">
  <!-- Generator: Adobe Illustrator 29.5.1, SVG Export Plug-In . SVG Version: 2.1.0 Build 141)  -->
  <defs>
    <style>
      .st0 {
        fill: #333;
      }
    </style>
  </defs>
  <path class="st0" d="M429.8,672.9c14.2-19,25.2-33.6,35.6-47.6,3.9-5,7.1-10.1,11.7-14.5,5.9-6.5,12.3-15.6,25.3-10.8,12.3,4.7,7.2,14.1,4.1,21.1-2.5,7.5-7.6,14.9-12.1,22-19.9,32.5-40.4,65-60.9,97-5.8,8.5-10.9,17.5-18.7,25.1-15.7,16.1-31.9,15.5-44.6-1.6-16.9-22.9-32.5-46.3-48.1-69.6-7.1-9.7-14.1-20-19.2-30.2-2.9-5.9-2.4-12.8-3.3-19.2,18.8-2.4,23.1,5.5,28.1,12.3,13.4,17,26.1,34.6,39.5,51.5,4.9,5.8,9.8,12.2,20.8,17.8,1.1-8.9,2.8-17.4,3.2-26.2,2.6-66.7,5.1-132.9,7.7-199.6,3.6-96.9,7.2-193.2,11.5-290,.4-7.9,4.2-15.9,7.3-25.3,18.5,8.5,14.8,18.9,14.4,27.3.2,47.4-.9,95.3-1.4,142.7-1.4,102.2-2.8,204.5-4.2,306.7.8,2.4,1.5,3.9,3.7,11.3l-.4-.2Z"/>
</svg>