<?xml version="1.0" encoding="UTF-8"?>
<svg id="Layer_1" xmlns="http://www.w3.org/2000/svg" version="1.1" viewBox="0 0 800 800">
  <!-- Generator: Adobe Illustrator 29.4.0, SVG Export Plug-In . SVG Version: 2.1.0 Build 152)  -->
  <defs>
    <style>
      .st0 {
        fill: #fff;
      }
    </style>
  </defs>
  <path class="st0" d="M429.8,644.5c14.2-24.2,25.2-42.8,35.6-60.6,3.9-6.4,7.1-12.8,11.7-18.5,5.9-8.3,12.3-19.8,25.3-13.8,12.3,6,7.2,18,4.1,26.9-2.5,9.5-7.6,19-12.1,28-19.9,41.4-40.4,82.7-60.9,123.5-5.8,10.8-10.9,22.3-18.7,31.9-15.7,20.5-31.9,19.7-44.6-2-16.9-29.1-32.5-58.9-48.1-88.6-7.1-12.4-14.1-25.4-19.2-38.5-2.9-7.5-2.4-16.3-3.3-24.4,18.8-3,23.1,7,28.1,15.6,13.4,21.7,26.1,44,39.5,65.6,4.9,7.4,9.8,15.5,20.8,22.7,1.1-11.3,2.8-22.1,3.2-33.4,2.6-84.9,5.1-169.2,7.7-254.1,3.6-123.3,7.2-245.9,11.5-369.2.4-10.1,4.2-20.2,7.3-32.2,18.5,10.8,14.8,24.1,14.4,34.8.2,60.3-.9,121.3-1.4,181.7-1.4,130.1-2.8,260.3-4.2,390.4.8,3.1,1.5,5,3.7,14.4l-.4-.2Z"/>
</svg>