<?xml version="1.0" encoding="UTF-8"?>
<svg id="Capa_1" xmlns="http://www.w3.org/2000/svg" version="1.1" viewBox="0 0 3873 3873">
  <!-- Generator: Adobe Illustrator 29.5.1, SVG Export Plug-In . SVG Version: 2.1.0 Build 141)  -->
  <defs>
    <style>
      .st0 {
        fill: none;
      }

      .st1 {
        fill: #00cc64;
      }
    </style>
  </defs>
  <path class="st0" d="M1054.8,2014c84.8,35.7,178.6,65.2,257.2,113.2,51.7,31.6,75.9,120.9,21.1,164-157.8,124.4-300.6,262.6-444.5,401.7,128.6,59.2,260,110.7,394.4,156.3,57.4,19.5,71.9,83.2,33.9,128.3-91.4,108.4-182.7,216.8-274.1,325.2-22.8,27.1-45.7,54.2-68.5,81.3-16.7,19.9-63.9,58.7-69.9,83.4-2.4,10,26.6,53.4,31.9,64.4,14.3,29.4,28,59.2,41.2,89.2,91.6,209.3,148.1,437.3,170,665.6,50.4-47.8,110.6-89.3,164.1-133.8,106.7-88.9,215.2-175.4,319.5-267.1,208.8-183.3,403.6-382.9,578.5-598.9,305.9-377.9,549.7-811.9,693.1-1277.3,115.4-374.5,237.1-915.2-65.1-1237.8-152.6-162.9-395.3-261.6-613.6-290.9-240.9-32.3-449.2,50.7-632.8,203.9-182.9,152.6-321,341.4-420.3,557.3-55.4,120.3-105.2,243.3-156.9,365.3-29.7,70-59.3,139.9-89,209.8-12.2,28.8-24.4,57.6-36.6,86.4-4.7,11-9.3,25.1-14.9,37.4,20.9,8.2,43.2,14.8,58.5,21.2,40.9,17.2,81.9,34.5,122.8,51.7v.2h0Z"/>
  <path class="st0" d="M-19.7,3684.7c166.1,136.1,344.9,257,531,364,96,55.2,194.2,106.6,294.3,153.9,47.3,22.4,95.1,43.8,143.3,64.3-33.4-240.7-96.2-474.8-188.4-700.9-26.9-66.1-35.4-128.8,8.3-189.9,42.1-58.9,96-111.9,143.4-166.5,73.5-84.5,146.9-169,220.4-253.6-136.5-53.6-269.9-115.2-399.5-183.5-38.5-20.3-46.4-79.9-14.1-109.3,135-122.9,263.2-248.8,373.5-392.2-45.2-18.7-90-39-134.1-56.5-79-31.3-168.3-56.2-242.5-97.7-70.9-39.7-100.1-108.2-85.4-181.5-50.6-57.7-103.1-114.2-153.4-170.9-84.5-95.3-171.6-188.4-264-276.2-167.5-159.3-355.9-312.6-580.2-382.2-180.2-55.9-365.2-41-519.1,73.4-132.7,98.6-217.4,254-253.4,413-92.6,408.4,120.8,853.9,328.2,1194.2,209.1,343.1,481,643.9,791.5,898.2h.2,0Z"/>
  <path class="st1" d="M861.4,3055.8c160.3,147.2,335.3,279.6,520,394.6,98.6,61.4,200.3,117.8,304.6,169,49,24.1,98.7,47,148.9,68.7,63,27.3,108.1,44.5,173.9,26.5,8.9,2.7,18.6,2.5,27.8-2.2,53.2-27.5,109.9-48.1,162.7-75.1,57.6-29.4,114.1-69,167.5-105.4,98.5-67.3,192-142.6,282.5-220.1,185.6-159.2,358.4-333.8,512.4-523.9,307.3-379.4,543.2-821.6,655.8-1298.5,50.8-215.1,76.3-440.6,30.7-659.1-47.5-227.3-186.5-403.7-385.7-519.4-213.7-124-467.9-195.9-714.1-143.9-229.2,48.4-437.9,218.3-582.2,397-182.2,225.6-273.3,499.6-380,765.5-16.3,40.6-32.9,81.2-49.4,121.7-21-30.1-43.1-59.6-65.3-88.7-61.7-80.8-128.2-157.5-198.5-230.9-132.8-138.5-280.4-271.9-452.9-359.2-165.4-83.7-358.5-124.7-539.3-66-163,52.9-294,175.7-375.8,324.5-199.2,362.4-82.5,787.4,86.1,1136.8,162,335.5,396.5,636.7,670.5,888.2h-.2ZM1904.9,1549.2c10.2-24,20.3-48,30.5-72,24.7-58.2,49.4-116.5,74.1-174.8,43.1-101.5,84.6-204,130.7-304.2,82.7-179.7,197.7-337,350-464.1,152.9-127.6,326.4-196.7,527-169.8,181.8,24.4,383.9,106.6,511,242.2,251.7,268.7,150.3,719,54.2,1030.9-119.5,387.6-322.5,749-577.2,1063.7-145.6,179.9-307.9,346.1-481.8,498.8-86.9,76.3-177.3,148.4-266.1,222.4-44.5,37.1-94.7,71.7-136.6,111.5-18.2-190.1-65.3-380-141.6-554.3-10.9-25-22.4-49.8-34.3-74.3-4.4-9.1-28.6-45.3-26.6-53.6,5-20.6,44.3-52.9,58.2-69.5,19-22.6,38.1-45.1,57.1-67.7,76.1-90.3,152.2-180.6,228.3-270.9,31.7-37.6,19.6-90.7-28.2-106.9-111.9-38-221.3-80.9-328.4-130.2,119.8-115.9,238.7-231,370.1-334.6,45.6-35.9,25.4-110.3-17.6-136.6-65.4-40-143.5-64.6-214.2-94.3-34.1-14.4-68.2-28.7-102.3-43.1-12.8-5.4-31.3-10.9-48.7-17.7,4.6-10.3,8.5-22,12.4-31.1v.2h0ZM216.1,1290c30-132.4,100.5-261.8,211-343.9,128.2-95.2,282.3-107.7,432.3-61.1,186.8,58,343.7,185.6,483.2,318.3,76.9,73.1,149.5,150.6,219.8,230,41.8,47.2,85.6,94.3,127.7,142.3-12.3,61,12,118,71.1,151.1,61.8,34.6,136.2,55.3,201.9,81.4,36.8,14.6,74,31.5,111.7,47.1-91.9,119.5-198.7,224.3-311.1,326.6-26.9,24.5-20.3,74.1,11.7,91,108,56.9,219.1,108.2,332.7,152.8-61.2,70.4-122.4,140.8-183.5,211.2-39.5,45.5-84.3,89.7-119.4,138.7-36.4,50.9-29.4,103.1-6.9,158.1,76.8,188.3,129.1,383.2,156.9,583.7-40.1-17.1-79.9-34.9-119.3-53.6-83.4-39.4-165.2-82.2-245.1-128.2-155-89.1-303.9-189.8-442.2-303.1-258.6-211.8-485-462.3-659.2-748-172.7-283.4-350.5-654.4-273.4-994.5h0Z"/>
</svg>