<?xml version="1.0" encoding="UTF-8"?>
<svg id="Layer_2" xmlns="http://www.w3.org/2000/svg" version="1.1" viewBox="0 0 375 522.7">
  <!-- Generator: Adobe Illustrator 29.4.0, SVG Export Plug-In . SVG Version: 2.1.0 Build 152)  -->
  <defs>
    <style>
      .st0 {
        fill: #00cc64;
      }
    </style>
  </defs>
  <g id="Layer_1-2">
    <path class="st0" d="M126.4.2c-1.7.2-7,.9-12,1.5-30.2,3.7-61.3,18.8-75.5,36.8-6.6,8.4-12.2,23.6-13.6,37.1-1.2,11.2-2.6,15.5-7.9,23.5C-1,127.2-4.4,150.9,5.2,185.7c2.2,7.9,3.9,12.2,9.2,23.5,8.6,18.2,11.7,24,15.1,28.2,3.6,4.4,5.3,11.8,5.4,23.1,0,2.9.8,8.8,1.7,13,.9,4.2,1.6,8.4,1.6,9.2,0,.8.6,4.2,1.5,7.5s1.6,6.7,1.8,7.5c1.2,5.6,8.2,24.6,12,32.6,7.5,15.7,14,25.9,26.5,41.4,9.4,11.7,32.3,34.1,36.7,35.9,4.5,1.9,4.1,3.1-1.1,3.1s-20.4,5-28.5,9.9c-7.3,4.4-15.8,12.6-21.3,20.6-8.9,12.8-15.8,31.8-17.5,47.8-1.1,10.5,3.2,20,7.7,17.1,1.7-1,4.9-9.2,4.9-12.4s2.8-15.2,5.4-23.3c1.8-5.7,9.7-20.9,10.4-20.2.3.3-.2,3.1-1.1,6.2-1.8,6.4-4.8,19.7-5.3,22.8-1.8,12.9-1.9,12.2,1,14,3.8,2.4,5.2.8,6.5-7.5,2.2-13.8,3.2-18.7,4.5-22.5l1.4-4,8.4-.5c7.9-.5,8.8-.8,14.3-4.6,14.6-10.2,22.9-15.3,27.2-16.9,9.7-3.4,12.1-4.7,11.5-6.1-.8-2.1-6.9-1.7-14.6,1.1-6.9,2.5-15.5,7.3-26.2,14.9-3.3,2.3-7,4.5-8.2,4.9-2.2.6-2.2.5-.7-2.1,1.8-3.1,6.2-6.2,16.1-11.3,4-2,9.8-5.3,12.8-7.2,3-1.9,6.9-3.9,8.7-4.4,3.4-.9,5.1-4.4,3.1-6.3-1.6-1.6-12-1.4-14,.3-1,.9-5.8,3.2-10.8,5.2-15,6.2-18.8,8.3-24.3,13.4-2.9,2.7-5.2,4.7-5.2,4.4,0-2.3,6.3-11,9.6-13.3,14-9.6,35.6-15.4,47.1-12.5,11.5,2.9,19.9,4.6,25.5,5.2l5.8.6v24.6c0,13.6.5,28.9,1.1,34.1s1.4,13.8,1.9,19.1c1.4,14.7,5.6,21.2,10.5,16.3,1.6-1.7,1.7-3.4.9-22.4-1.2-29.1-.9-48.2,1-57.4,1.1-5.4,1.3-8.4.6-9.6-.5-1-1-2.2-1-2.6s6-.8,13.4-.9,15.3-.4,17.6-.8c5.1-.8,5.1.7-.1,4.2-1.9,1.3-4.4,3.2-5.8,4.3-2.2,1.9-2.2,2.1-.6,3.3,1.6,1.2,1.6,1.5.2,3.7-.9,1.3-2.4,5.1-3.4,8.4s-2.4,6.7-3.1,7.6c-.7.8-1.4,2.5-1.4,3.5-.3,4.5-1.7-7.8-1.8-15.3,0-4.5-.4-9.5-.7-11.2-.6-3-.9-3.1-4.8-2.9-4.5.3-6.6,13.3-6.2,38.8.7,44.9,2.2,54,8.5,54s3.4-.6,4-1.3c.7-.9,1.3-10.8,1.7-27.2.6-24.7.7-26,2.7-27.9,3.7-3.5,9-6.3,16.2-8.5,3.9-1.2,8.7-2.8,10.9-3.5,4.9-1.7,3.7-.5-2.9,3-13.2,7-17.5,10.5-17.5,14.2s-.1,2.8,5.2.3c4.7-2.2,6.3-3.1,12.5-7.2,2.3-1.5,4.5-2.8,5-2.8s4.2-3.4,8.4-7.5,10.2-9.7,13.5-12.5c6.5-5.2,20.1-12.3,21.7-11.3,1,.6-.7,2.2-12.3,11-4.1,3.1-10,7.9-13.1,10.5-5.6,4.8-24.9,18.1-30.2,20.8-5.2,2.7-10.7,8.1-10.7,10.5,0,4,4.8,4.3,12.3.6,19.5-9.4,29.4-13.1,34.9-13.1s2.8.4,2.8,2.8-.9,4.2-2,6c-2.4,4-2.5,5.1-.2,6.9,3,2.3,5,1.5,8-2.9,2-2.9,5.5-5.8,10.9-9,11.4-6.8,24.6-13.7,26-13.8,6.2-.1-14.3,18.1-28.5,25.4-2.6,1.3-5.8,3.6-7.2,5.1l-2.5,2.7,2.4,1.9c4.8,3.9,10.1.8,30.3-17.5,5.8-5.2,10.8-9.6,11.1-9.6s1.5,2.3,2.7,5.2c5.4,12.6,14.5,25.4,20.2,28.4,3.8,2,5.6,1.7,8.4-1.2,2.3-2.4,2.5-3.1,1.9-8.3-.5-5-2.5-11.7-5.5-18.6-.5-1.1-2.3-5.4-4.1-9.5s-4.7-10.1-6.6-13.3c-1.9-3.2-3.4-6.1-3.5-6.5-.1-1.9-12.5-15.4-19-21-9-7.5-10.6-8.2-12.9-5.2l-1.7,2.2-7.2-3.2c-7.7-3.4-18.4-7-20.7-7s-1.2-1.6,6.3-6.5c17.1-11.1,24.2-16.4,32.2-23.9,16.5-15.5,30.6-38.8,37.4-62,2.7-9.2,7-30.7,8-39.5.2-2.1,1-2.6,4.3-3.1,7.8-1.2,17-7.5,21.6-14.8,4-6.3,3.9-12.7-.1-19.8-3.4-6-7.4-9.4-14.5-12.1-4.2-1.6-5-2.3-4.7-4.4.3-2.5,3.6-12.9,5.1-16.3,2-4.5,4.7-13.6,4.9-16.5.2-2.9,1.3-2.5,3.3,1,1.6,2.8,5.1,4.1,6.1,2.3.8-1.5-3.6-50.3-5.4-59.3-7.8-39.7-19.6-60.7-44.9-79.5-8.1-6.1-35.1-19.7-47-23.8-9.7-3.3-34.6-9.7-38.7-10-1.8-.1-3.3-.4-3.3-.5s1.3-1.9,3-3.8c4.1-4.7,4-6.4-.6-6.4s-4.6.8-8,3.9c-4.2,3.9-11.1,6.1-14.6,4.8-.7-.3.4-.5,2.4-.6,3,0,4-.6,4.9-2.6.6-1.4.9-2.8.5-3.1s-3.7,0-7.4.6c-3.7.7-11.4,1.5-17,1.8l-10.2.5v-3.6c0-4.5-4.5-8.7-9.4-8.7s-7.2-.9-12.1-1.9c-8.6-1.8-31.7-3.4-38-2.5h0ZM176.9,9.5c0,1.3-7.3,1.9-18.2,1.4-13.3-.6-24.8,1-46.3,6.5-16,4.1-23.6,8-34.4,17.8-4,3.6-5.9,4.9-4.9,3.3,2.7-4.3,2.3-5.2-2.2-4.5-6.4.9-11.1,5.6-22.5,22.7-5.8,8.7-11.5,16.6-12.6,17.7-1.4,1.2-1.8.5-1.4-2.2,2.4-14.6,10.8-28.4,22.5-37,7.7-5.7,25.6-15,34-17.7,8.1-2.6,26.4-6.1,45.5-8.6,7.8-1,40.5-.5,40.5.6h0ZM137.9,20.2c-.6.8-1.6,1.5-2.1,1.5s-4.2,2.2-8.4,5-7.7,5-7.9,5c-1.3,0-17.7,11.8-21.3,15.3-2.3,2.2-4.2,3.5-4.2,2.8,0-1.9,15.6-17.2,21-20.7,5.8-3.7,11.2-6.3,17.5-8.5,6.4-2.2,7-2.3,5.5-.4h0ZM175.4,22.1c1.9,1.5,1.9,1.6-1,4-1.7,1.4-3.5,2.5-4.2,2.5-.6,0-2.7,1.4-4.5,2.9s-4.7,3.7-6.4,4.8c-9.2,5.6-21.2,16.5-44.4,40.1-19.7,20-26.8,28-35,39.5-11.5,16-16.3,23.9-20.8,34.8-4.6,11-5.3,10.8-4.7-1,.3-5.8,1-12.3,1.5-14.6.5-2.3,1.2-5.8,1.5-8,1-7.5,9.1-27.1,16.5-39.9,12.7-22,33.2-40.5,64.1-58,4.7-2.7,9.3-5.5,10.2-6.3,1-.9,1.9-1.3,2.2-1,.2.2-5.4,6.3-12.5,13.4s-17.4,17.9-22.8,24c-5.5,6.1-13.6,15.1-18.2,20.3-10.5,11.7-19.5,22.8-21.5,26.6-1.6,3-.8,5.1,1.7,4.1,1.8-.7,30.5-30.8,41.1-43.2,15.2-17.7,38.4-38.4,50-44.6,4-2.1,4.8-2.2,7.3-.3h0ZM197.9,25.1c0,1.4-4,3.6-6.5,3.6s-5.7,2.1-11,4.6l-9.6,4.6,2.9,2.2c1.6,1.2,3.8,2.7,4.8,3.2,1.7,1,.5,2.5-11.1,14.9-7.2,7.6-15.2,15.6-17.9,17.9-2.7,2.2-7.2,6.2-10,8.7s-7.2,6.3-9.8,8.3c-2.8,2.2-7.8,8.3-12.2,14.9-4.1,6.1-9.1,13.4-11.1,16.2-10,13.9-29.5,42.7-29.5,43.5s-.7,1.3-1.4,2c-1.2,1-1.4.6-.9-2.6,2.1-15.6,9.7-32.6,22-48.9,5.9-7.8,18-20.1,23.4-23.7,1.9-1.3,6-4.3,9-6.6,3-2.4,8.6-6.6,12.4-9.5,7.7-5.8,8.2-6.5,6.4-9-1.2-1.6-1.8-1.3-7,3.1-11.8,9.9-22.4,18.3-26.9,21.2-2.6,1.7-6.3,4.9-8.3,7.1-4.1,4.5-4.6,4.1-1.5-1.1,2.6-4.3,34.3-35.8,46.4-46,4.9-4.1,12.8-11.2,17.5-15.6,9.1-8.6,12.7-10.9,20-12.9,6.1-1.7,10-1.7,10,0h0ZM216.9,38.7c0,1.2-4.1,4-5.9,4s-.8-.7.9-2.5c2.3-2.5,5-3.3,5-1.5h0ZM207.7,41.4c.3.8-.7,1.3-2.7,1.3-3,0-3.9-.9-2.4-2.4,1.1-1.1,4.6-.3,5.1,1.1h0ZM231.9,41.1c4.9,1.2,13.9,5.4,16.4,7.7,1.3,1.2-5.4,1.2-10.7,0-2.3-.5-7-1.5-10.5-2.1-6.4-1.2-7.8-2.9-5-5.7,1.4-1.5,2.9-1.4,9.8.2h0ZM68.8,45.7c-1.8,2.2-3.4,4-3.7,4-.5,0,1.2-2.4,4.2-5.8,3.3-3.8,2.9-2.5-.5,1.8h0ZM79,51.4c-1.6,2.6-4,6-5.2,7.5-1.2,1.5-3.9,5.3-5.8,8.4-1.9,3.2-5.7,9.1-8.5,13.3-5.1,7.8-9.3,15.1-17.2,30.1-5.1,9.6-7.3,12.5-7.3,9.6s5.2-20.9,8.3-27.3c5.1-10.4,13.1-23.3,18.2-29,4-4.5,18.9-17.3,20.1-17.3s-.9,2.2-2.6,4.8h0ZM204.5,49c1.2,1.2-2.1,4.8-15.4,16.9-8,7.3-16.5,14.9-18.9,16.8-10.9,9-44.9,52.3-49.2,62.7-2,4.8-.8,8.3,2.8,8.3s3.5-.9,7.2-7c18.5-30,27.8-41.8,51-64.6,10.7-10.6,22.4-21.7,26.2-24.8,7.5-6.3,6.6-6.1,20.2-3.5,7.9,1.5,10.8,2.7,10,4.1-.4.6-3,2.7-5.8,4.5-2.8,1.9-7.6,5.5-10.6,8-3,2.5-9.8,8.1-15,12.3-13.5,10.9-51.2,46.3-59.3,55.6-5.7,6.6-6.8,8.4-6.5,10.9.2,2.3.9,3.1,2.6,3.4,1.9.2,6.5-4,23.9-21.8,34.2-35,53.8-52.8,75.4-68.5,9.2-6.7,13.7-9.5,15.3-9.5s10.6,5.9,10.5,6.8c0,.4-3.6,3.6-8.1,7.2-39.5,31.8-84.8,72.2-84.8,75.7s1.1,1.3,2.4,1.3c2.7,0,13.1-8.5,44.2-36,11.5-10.2,23.6-20.7,26.9-23.5,3.3-2.8,10-8.5,14.9-12.8,5.3-4.6,9.7-7.8,11-7.8,2.7,0,16.2,13.2,15.2,14.9-.4.6-1.1,1.1-1.6,1.1-2.5,0-26.2,18.5-43,33.5-35.6,31.8-53.5,53.2-45.4,54.3,1.7.2,3.1-1,5.8-5.1,7.9-12,55.3-55.3,76.2-69.8,1.2-.8,4.6-3.3,7.7-5.7s6-4.2,6.6-4.2c1.3,0,9.1,9.7,9.1,11.3,0,.7-3.5,3.6-7.8,6.5-32.4,22-51.7,38.1-58.3,48.3-3,4.7-3.1,5-1.5,7.4,2.7,4.2,5,3.2,10.9-4.7,9.6-12.9,19.2-21.6,41.6-37.5,5.2-3.7,11.5-8.2,13.9-10,2.4-1.8,4.6-3.3,5-3.3s2.9,3.9,5.6,8.6l5,8.6-2.5,1.9c-1.3,1-2.9,1.9-3.3,1.9s-5.8,2.9-11.6,6.5-11.2,6.5-11.6,6.5c-1.6,0-20.5,13.2-23.8,16.6-2.8,2.9-3.3,4-2.5,5.5,1.4,2.6,3.8,2.3,8.9-1.1,20.5-13.7,47.6-30,49.9-30s1.5.9,2.1,2.1c.9,1.6.8,2.5-.4,3.8-2.5,2.8-3.8,5.8-3.1,7.5.5,1.3,1.2,1.2,4.1-1.1,1.9-1.5,3.5-2.5,3.7-2.2,2.6,4.7,4.7,10,4.2,10.8-.3.6-1.5,1.6-2.5,2.1-1.8.9-1.9.6-1.3-3.9l.6-4.9-3.4.9c-1.9.5-3.5.9-3.7.9-.8,0,0,12.8,1.2,18.6.8,3.8,1.7,8.6,2.1,10.6.3,2.1,1.1,3.8,1.9,3.8s2.5-2.4,4-5.2l2.8-5.2-.7,12.5c-.4,6.9-.8,29.5-1,50.2-.2,29.4-.7,39.8-2,47-.9,5.1-1.8,10.8-2,12.6-.5,4.9-3.5,18.1-5.1,22.4-.8,2.1-1.4,4.4-1.4,5.2s-1.9,6.2-4.1,12.1c-4.5,11.8-12.4,24.3-21.4,34.3-5,5.5-24.3,21.2-26.1,21.2s-2.5,1.3-4.8,2.8c-6.9,4.6-7.6,5-22.2,12.2-7.8,3.9-14.7,7-15.4,7s-2.6.6-4.4,1.4c-9.1,4-30.4,7.3-38.6,5.9-3.4-.5-4-1-4-3s-1.4-3.4-11.5-5.8c-28-6.5-41.4-11.6-55.6-21-10.6-7.1-29.2-26.1-37.2-38.2-10.5-15.9-22.7-40.7-24.1-49.3-.2-1.4-1.1-5-2-8-2.6-9.4-3.6-23.5-3.5-50,.1-25.6,1.2-38.2,4.2-46.8.8-2.2,1.2-4.2,1-4.4-.5-.5,2.9-10.6,5.2-15.8,6-13.2,15.6-31,16.7-31s-1,3.8-2.6,8.2c-1.6,4.5-3,9.2-3.2,10.2-.2,1.1-1.1,4.4-2,7.4s-1.6,6.9-1.6,8.8c0,3,.2,3.3,2.8,3.3s3.4-.6,4.1-1.2c1.1-1,1.2-.6.6,2.2-.4,1.9-1,4-1.4,4.5-1.5,2-8.2,19.7-8.7,22.9-.4,2.6,0,3.8,1.7,5.4,1.2,1.1,2.6,1.9,2.9,1.6.4-.2,1.7-3.3,2.9-6.7,1.2-3.4,2.8-7.6,3.5-9.2.7-1.7,1.8-4.1,2.4-5.5,10.3-24.2,18.8-37.1,46.3-70.6,11.6-14.1,56.6-59,66.9-66.8,5.5-4.1,6.9-4.7,9.8-4.3,1.9.3,3.6.7,3.8,1h0ZM285.8,53.4c4.7,3.1,11.2,8.2,14.4,11.2,5.4,5.2,5.6,5.6,4.1,7.3-.9,1-2,1.8-2.4,1.8-1,0-26-24.1-26-25.1,0-1.5,1.2-.9,9.9,4.8h0ZM306.3,54.5c10,5.8,12,7.7,9.2,8.8-1.5.6-15.5-8.6-19-12.5-2.9-3.2-.9-2.4,9.8,3.7h0ZM327.2,75.6c11,11.5,9.6,12.4-1.8,1.1-5.2-5.2-9.5-9.8-9.5-10.3,0-1.7,3.9,1.5,11.3,9.2h0ZM317.1,78.9c2.1,2.3,3.8,4.4,3.8,4.8,0,1.4-7.3,7.1-8,6.3-.4-.4-2.4-3.4-4.4-6.5l-3.6-5.7,2.2-1.5c3.6-2.5,5.8-1.9,10,2.6h0ZM336,99.6c1.6,2.4,3,4.8,3,5.2,0,1.4-9.3,6.9-11.7,6.9-1.7,0-3.1-1.7-6.4-7.7l-4.2-7.7,2.2-1.6c1.2-.9,3.4-2.5,4.9-3.8l2.7-2.2,3.3,3.2c1.8,1.8,4.6,5.2,6.2,7.6h0ZM27.4,118.8c-.9,3.5-1.8,7.2-2,8.2-.2,1.1-1,3.7-1.8,6-4.1,11.6-5.6,55.7-2.4,69.6,2.5,10.7.1,9.2-3-2-4.3-15.1-5.2-21.3-5.2-37.1s1.1-23.3,5.3-38.9c2.2-7.9,3.3-10.5,6.9-16.1l3.2-5,.3,4.4c.2,2.4-.4,7.3-1.4,10.8h0ZM343.9,115.2c0,3.2-.4,3.7-5.1,6.1-5.9,3-9.2,2.8-9.7-.4-.2-1.2.2-2.2.7-2.2s3.1-1.5,5.8-3.4c6.3-4.6,8.3-4.6,8.3,0h0ZM350.1,128.2c1.8,4.7,1.8,5.1.1,8.8-1.8,4.1-4.8,6.7-7.4,6.6-.8,0-3-3-4.9-6.7l-3.4-6.6,2.9-2.4c3.1-2.6,8.3-5.1,9.7-4.8.5.1,1.8,2.4,2.8,5.1h0ZM48.3,132.4c-.3,3.2-1,8.9-1.5,12.8-.5,3.9-1.3,11.9-1.8,18-.6,8.8-1.3,12.1-3.5,16.7-2.7,5.6-6.9,10.8-5.2,6.3.4-1.1,1.2-6.3,1.7-11.5.8-8.4,1.4-13.4,3.4-28.2,1.4-10.1,4.5-19.8,6.4-19.8s.9,1.9.5,5.8h0ZM37.9,139.3c0,.8-.5,1.2-1,.9-.6-.4-.8-1-.5-1.5.9-1.4,1.5-1.2,1.5.6h0ZM352.4,154c-.6,7.4-2,21.3-3,27.7-.3,2-1.1,5.7-1.9,8.5l-1.4,5v-11.5c-.3-11.8-1.6-27.3-2.7-30.2-.5-1.2.5-2.3,3.7-4.2,2.4-1.4,4.6-2.6,5-2.6s.5,3.3.2,7.3h0ZM34.4,159.9c-.3,4.5-1,12.7-1.5,18.1-.5,5.4-1,12.5-1,15.8s-.6,6.8-1.7,8.5c-1.5,2.3-1.8,2.4-2.4.6-1.8-4.5-.3-25.7,2.8-41.8,1.7-8.8,2-9.5,3.4-9.5s.8,2.9.4,8.2h0ZM37.9,206.5c-.4,2-1.2,4.6-1.8,5.7-.6,1.1-1.9,4.1-2.9,6.7-2,5.3-2.8,5.8-3.7,2.5-1.6-5.9-.7-10.2,2.9-14.5,4.5-5.3,6.3-5.4,5.4-.4h0ZM38.5,229c.1.9-.4,1.7-1.2,1.7-1.7,0-2.7-1.7-1.9-3.1.9-1.4,2.7-.6,3,1.4h0ZM355.5,245.1c4.7,2,6.3,5.6,4,9.1-1.7,2.5-8.6,6.5-11.5,6.5-2,0-1.1-14.8,1-16.1,2-1.2,2.4-1.2,6.5.5h0ZM256.9,420.2c0,.6-5,3.8-15,9.6-4.1,2.4-8.4,5.1-9.5,6-2.9,2.4-9.1,5.8-13.9,7.4l-4.1,1.4,2.6-2.2c12-10.2,20.8-15.9,32.9-21.3,2.6-1.2,7-1.7,7-.9h0ZM259.9,429.1c0,1.5-30.8,17.2-31.8,16.2-.5-.5,5.2-4,13.1-8.1,3.2-1.6,7-3.6,8.5-4.4,2.2-1.2,8.8-3.8,10-4,.1,0,.2.1.2.4h0ZM289.8,436l2.2,2.4-3.5,2.7c-1.9,1.5-5.2,3.4-7.2,4.2-5.9,2.5-14.8,6.5-22.8,10.3-2.9,1.4,3.8-4.6,9.5-8.5,3.6-2.5,9.2-6.4,12.5-8.8,3.3-2.4,6.3-4.4,6.6-4.5.3,0,1.6,1,2.8,2.2h0ZM298.9,447.7c1.4,2.5.4,4.4-4.7,9.1-4.9,4.5-9.9,7.9-11.6,7.9s-2.1.6-3.2,1.3c-1.1.7-3.2,1.8-5,2.5l-3,1.2,3.5-3c1.9-1.6,3.8-3,4-3,.3,0,4-4,8.4-9s8.4-9,9.1-9,1.8.9,2.4,2h0ZM278.9,453.5c0,.4-2,1.9-4.2,3.1s-4.9,2.9-5.8,3.6c-.8.7-5.5,2.8-10.5,4.8s-10.7,4.3-12.8,5.1c-5.3,2.2-3.7,0,2.1-2.9,2.6-1.3,7.5-3.8,10.9-5.5,3.4-1.7,6.6-3.1,7-3.1s3.5-1.3,6.8-2.9c6.9-3.4,6.5-3.2,6.5-2.3h0Z"/>
    <path class="st0" d="M145.1,437.2c-1.2.8-3,1.7-3.9,1.9-1,.2-3.6,1.3-5.9,2.5s-4.7,2-5.2,2-1.8.4-2.8,1c-1,.5-5.2,2.5-9.5,4.5s-9.2,4.8-10.9,6.3-5.9,4.5-9.3,6.8c-12,8-20.4,28.5-11.6,28.4.9,0,5.2-2.7,9.6-5.9,10.6-7.8,27.2-19.1,31.4-21.2,4.1-2.1,9.1-3.3,9.1-2.1s-11.8,12.5-18,17.1c-3,2.2-8.2,6.6-11.5,9.7-3.3,3.1-9.1,8.2-12.8,11.2s-6.7,6-6.7,6.6c0,2.9,2.8,4.8,5.7,4.1,7.8-1.8,33.6-17.1,42.8-25.3,2.3-2,6.2-5.4,8.8-7.5,4.5-3.6,6.1-6.7,3.5-6.7s-11.8,5.9-16.4,9.6c-2.3,1.9-4.5,3.4-4.8,3.4s2.4-3.6,6.2-8.1c7.6-9.1,12.2-17.1,12.2-21.2s-2-4.3-7.2-2.8c-9.1,2.7-31.3,14.6-36.8,19.6-1.4,1.3-3.7,2.8-5.2,3.3l-2.7,1,2-3.4c3.5-6,10.7-11.5,20.7-16.1,15.2-7,16.6-7.6,18.2-8.5.8-.4,3.3-1.7,5.5-2.9,5.3-2.8,6.9-4.1,8.4-6.8,1.4-2.6.4-2.8-2.7-.6h0Z"/>
    <path class="st0" d="M119.1,220.2c-3.8,3.2-5.6,10.3-5,19.9.5,8.1,2.2,11.4,7.2,14.1,3.8,2,6.6,1.6,11.6-1.8,10.9-7.4,10.7-27.9-.4-33.1-5-2.4-9.9-2-13.4.9h0Z"/>
    <path class="st0" d="M242,220.6c-5.6,5.9-7,20.2-2.8,27.6,2.8,5,9.7,9.2,12.5,7.6,4.4-2.4,8-7.9,8.7-13.5,1.4-10.8-1.3-18.7-7.7-22.6-4.5-2.7-7.6-2.5-10.7.9h0Z"/>
    <path class="st0" d="M51.5,228.4c-1.2,1.2-.7,18.1.5,18.8,1.8,1.1,2.2-.2,2.7-10,.4-7.9.2-9.5-1-9.5s-1.8.3-2.2.7h0Z"/>
    <path class="st0" d="M133.6,313.5c-1.4,1.5-2.7,3.3-2.7,3.9,0,2.1,10.2,10.5,15.8,13,10.5,4.6,25.5,7.9,41.3,9,21.1,1.4,52.1-6.4,54.4-13.8,1.7-5.3-2.1-7.7-10.3-6.5-39.6,5.8-57.7,4.7-85.1-5.3-4.6-1.7-8.9-3.1-9.6-3.1s-2.4,1.3-3.9,2.8h0Z"/>
  </g>
</svg>