<?xml version="1.0" encoding="UTF-8"?>
<svg id="Layer_2" data-name="Layer 2" xmlns="http://www.w3.org/2000/svg" viewBox="0 0 375 522.66">
  <g id="Layer_1-2" data-name="Layer 1">
    <path d="M126.42.25c-1.67.23-7,.89-12,1.5-30.2,3.65-61.34,18.83-75.51,36.81-6.6,8.37-12.16,23.6-13.57,37.1-1.16,11.2-2.6,15.49-7.88,23.5C-1.03,127.2-4.37,150.86,5.24,185.66c2.19,7.94,3.86,12.2,9.18,23.5,8.58,18.2,11.68,23.99,15.11,28.2,3.6,4.42,5.31,11.8,5.36,23.1.01,2.89.77,8.8,1.67,13,.9,4.2,1.63,8.38,1.6,9.2-.03.82.62,4.2,1.45,7.5s1.64,6.68,1.82,7.5c1.21,5.65,8.19,24.6,12.02,32.6,7.52,15.7,14.02,25.85,26.53,41.4,9.41,11.7,32.32,34.1,36.72,35.91,4.54,1.87,4.1,3.09-1.1,3.09-6.06,0-20.4,4.97-28.5,9.87-7.28,4.41-15.79,12.63-21.35,20.63-8.87,12.75-15.83,31.8-17.46,47.8-1.07,10.5,3.18,19.95,7.71,17.14,1.67-1.03,4.9-9.24,4.9-12.44,0-3,2.83-15.2,5.41-23.3,1.82-5.7,9.65-20.94,10.39-20.2.27.27-.22,3.1-1.07,6.2-1.77,6.4-4.84,19.66-5.29,22.8-1.82,12.9-1.87,12.22.96,14.03,3.76,2.41,5.17.77,6.49-7.53,2.2-13.8,3.18-18.66,4.52-22.5l1.39-4,8.45-.5c7.9-.47,8.83-.77,14.35-4.62,14.6-10.2,22.89-15.34,27.2-16.87,9.7-3.43,12.06-4.68,11.5-6.11-.82-2.1-6.9-1.66-14.6,1.06-6.93,2.45-15.5,7.32-26.2,14.89-3.3,2.34-7.01,4.52-8.25,4.85-2.17.58-2.19.5-.67-2.1,1.83-3.13,6.22-6.19,16.12-11.26,4-2.05,9.76-5.32,12.75-7.24,3-1.93,6.93-3.88,8.75-4.36,3.4-.88,5.09-4.35,3.1-6.34-1.64-1.64-12-1.44-14,.27-1,.85-5.8,3.18-10.8,5.23-15,6.16-18.82,8.27-24.3,13.42-2.9,2.73-5.2,4.67-5.2,4.39,0-2.3,6.3-11.03,9.6-13.3,14-9.62,35.64-15.37,47.1-12.5s19.9,4.59,25.5,5.18l5.8.62.05,24.65c.03,13.6.48,28.91,1,34.15.52,5.24,1.37,13.8,1.88,19.1,1.42,14.7,5.62,21.22,10.49,16.3,1.64-1.66,1.71-3.4.92-22.4-1.22-29.1-.88-48.19,1.04-57.4,1.12-5.4,1.32-8.37.62-9.65-.54-1-1-2.22-1-2.65s6-.84,13.4-.9c7.4-.06,15.28-.41,17.6-.78,5.14-.84,5.1.7-.1,4.2-1.9,1.28-4.44,3.17-5.75,4.29-2.2,1.87-2.24,2.08-.6,3.3,1.6,1.19,1.62,1.5.2,3.7-.85,1.32-2.36,5.1-3.35,8.4-.99,3.3-2.39,6.72-3.1,7.6-.68.84-1.36,2.5-1.43,3.5-.29,4.46-1.74-7.8-1.8-15.3-.04-4.5-.36-9.5-.72-11.25-.62-3-.85-3.14-4.75-2.85q-6.8.5-6.18,38.8c.73,44.9,2.16,54,8.48,54,1.6,0,3.39-.61,4-1.35.7-.86,1.32-10.75,1.7-27.25.57-24.7.7-25.99,2.7-27.89,3.7-3.51,9-6.3,16.2-8.54,3.9-1.21,8.73-2.78,10.9-3.55,4.89-1.72,3.7-.47-2.9,3.05-13.2,7.04-17.5,10.53-17.5,14.23,0,2.75-.1,2.75,5.2.3,4.72-2.18,6.3-3.1,12.5-7.25,2.3-1.54,4.49-2.75,5-2.75s4.21-3.35,8.35-7.55,10.16-9.73,13.55-12.46c6.5-5.23,20.09-12.33,21.7-11.34,1.03.64-.7,2.19-12.3,11.03-4.1,3.12-10.04,7.88-13.1,10.49-5.6,4.78-24.89,18.07-30.2,20.8-5.2,2.68-10.7,8.09-10.7,10.52,0,4.02,4.8,4.28,12.3.65,19.5-9.43,29.38-13.15,34.9-13.15,2.4,0,2.8.39,2.8,2.75,0,1.5-.91,4.25-2,6.05-2.42,4-2.45,5.14-.2,6.86,2.98,2.27,5.03,1.54,8.05-2.86,1.98-2.88,5.55-5.84,10.85-8.99,11.4-6.77,24.57-13.73,26-13.76,6.19-.1-14.3,18.13-28.5,25.35-2.6,1.32-5.82,3.6-7.2,5.09l-2.5,2.7,2.4,1.93c4.78,3.85,10.1.77,30.3-17.53,5.8-5.25,10.83-9.6,11.1-9.6s1.49,2.3,2.73,5.2c5.41,12.6,14.53,25.44,20.17,28.39,3.8,1.99,5.56,1.74,8.44-1.19,2.33-2.37,2.5-3.1,1.93-8.3-.55-4.98-2.54-11.7-5.51-18.6-.47-1.09-2.31-5.4-4.06-9.5-1.75-4.1-4.74-10.13-6.6-13.3-1.88-3.2-3.42-6.11-3.45-6.5-.12-1.87-12.45-15.44-19.05-20.97-9-7.54-10.63-8.2-12.91-5.23l-1.69,2.2-7.2-3.17c-7.7-3.39-18.44-7.03-20.7-7.03-2.77,0-1.2-1.63,6.3-6.52,17.1-11.15,24.16-16.4,32.2-23.94,16.53-15.49,30.6-38.84,37.39-62.04,2.69-9.2,7.02-30.71,7.95-39.5.22-2.06.96-2.61,4.26-3.11,7.8-1.2,17.02-7.5,21.62-14.79,3.97-6.29,3.94-12.7-.1-19.8-3.42-6.01-7.42-9.36-14.52-12.14-4.2-1.65-4.95-2.34-4.69-4.36.32-2.5,3.61-12.9,5.15-16.3,2.04-4.5,4.73-13.57,4.89-16.5.16-2.85,1.32-2.5,3.3,1,1.59,2.8,5.09,4.12,6.09,2.3.82-1.51-3.58-50.3-5.35-59.3-7.81-39.7-19.64-60.65-44.91-79.53-8.15-6.09-35.1-19.74-47-23.81-9.7-3.32-34.55-9.71-38.7-9.96-1.8-.11-3.3-.36-3.3-.55s1.32-1.85,2.98-3.75c4.12-4.7,3.97-6.4-.58-6.4-2.93,0-4.6.83-8,3.95-4.2,3.86-11.14,6.12-14.6,4.76-.73-.29.35-.55,2.45-.61,3-.08,3.98-.6,4.9-2.6.64-1.4.86-2.79.5-3.15-.36-.36-3.7-.09-7.4.6-3.69.68-11.4,1.5-17,1.8l-10.25.55v-3.6c0-4.54-4.5-8.7-9.4-8.7-1.76,0-7.2-.86-12.1-1.91-8.6-1.84-31.68-3.36-38-2.5h0ZM176.93,9.46c.05,1.31-7.32,1.87-18.22,1.39-13.31-.59-24.8,1.02-46.3,6.49-16,4.07-23.55,7.99-34.4,17.83-4,3.63-5.92,4.92-4.88,3.29,2.72-4.26,2.28-5.15-2.22-4.52-6.41.89-11.11,5.62-22.54,22.72-5.81,8.7-11.48,16.63-12.61,17.65q-2.05,1.85-1.39-2.15c2.41-14.6,10.82-28.43,22.54-37.03,7.74-5.68,25.6-15,34-17.74,8.14-2.65,26.4-6.1,45.5-8.59,7.8-1.02,40.48-.49,40.52.65h0ZM137.92,20.16c-.64.8-1.63,1.5-2.11,1.5s-4.25,2.22-8.45,5c-4.2,2.78-7.73,5-7.95,5-1.28,0-17.7,11.8-21.3,15.31-2.3,2.24-4.2,3.51-4.2,2.79,0-1.88,15.6-17.22,21-20.66,5.82-3.7,11.2-6.32,17.5-8.53,6.4-2.24,7.01-2.28,5.51-.42h0ZM175.42,22.06c1.93,1.45,1.9,1.58-1,4-1.7,1.42-3.52,2.52-4.2,2.55-.65.03-2.7,1.35-4.5,2.9-1.8,1.55-4.71,3.71-6.4,4.75-9.18,5.61-21.25,16.5-44.44,40.1-19.65,20-26.77,28.03-35.04,39.5-11.53,16-16.27,23.9-20.85,34.8-4.61,10.96-5.34,10.8-4.67-1,.33-5.8,1.02-12.34,1.55-14.6.53-2.3,1.17-5.81,1.45-8,.96-7.47,9.08-27.1,16.49-39.9,12.73-21.98,33.21-40.51,64.11-57.99,4.7-2.66,9.28-5.48,10.25-6.31,1-.86,1.94-1.31,2.2-1.05.25.25-5.4,6.3-12.5,13.4-7.1,7.1-17.42,17.92-22.85,23.95-5.49,6.1-13.61,15.14-18.22,20.3-10.47,11.7-19.46,22.82-21.52,26.6-1.63,3-.76,5.05,1.74,4.09,1.82-.69,30.49-30.79,41.14-43.19,15.21-17.7,38.37-38.37,49.96-44.59,4-2.15,4.81-2.18,7.3-.31h0ZM197.92,25.06c0,1.38-4,3.6-6.5,3.6-.77,0-5.7,2.06-11,4.6l-9.6,4.6,2.95,2.15c1.6,1.17,3.8,2.65,4.8,3.25,1.66.99.53,2.5-11.15,14.9-7.16,7.6-15.2,15.64-17.9,17.9-2.69,2.25-7.2,6.15-10,8.65-2.8,2.5-7.22,6.26-9.8,8.35-2.78,2.25-7.76,8.35-12.2,14.95-4.1,6.1-9.13,13.41-11.1,16.15-10,13.9-29.5,42.65-29.5,43.5,0,.44-.65,1.34-1.45,2-1.22,1.01-1.37.6-.94-2.6,2.08-15.58,9.74-32.6,22-48.9,5.87-7.8,18-20.07,23.39-23.67,1.91-1.27,6-4.29,9-6.63,3.03-2.37,8.6-6.63,12.4-9.49,7.7-5.79,8.23-6.54,6.38-9.01-1.16-1.55-1.77-1.28-6.98,3.07-11.8,9.88-22.42,18.26-26.9,21.22-2.6,1.72-6.32,4.89-8.33,7.11-4.07,4.49-4.59,4.1-1.47-1.1,2.6-4.34,34.31-35.75,46.41-45.98,4.9-4.14,12.77-11.17,17.5-15.64,9.1-8.59,12.7-10.92,20-12.93,6.1-1.68,10-1.7,10-.05h0ZM216.92,38.66c0,1.22-4.1,4-5.9,4-1.01,0-.75-.7.94-2.5,2.34-2.5,4.96-3.29,4.96-1.5h0ZM207.68,41.36c.28.84-.66,1.3-2.66,1.3-3,0-3.9-.9-2.4-2.4,1.06-1.07,4.58-.3,5.06,1.1h0ZM231.92,41.07c4.9,1.16,13.93,5.37,16.4,7.65,1.28,1.18-5.4,1.16-10.7-.03-2.33-.52-7-1.47-10.5-2.14-6.4-1.21-7.84-2.86-5-5.71,1.45-1.45,2.9-1.42,9.8.22h0ZM68.81,45.66c-1.75,2.2-3.42,4-3.69,4-.53,0,1.2-2.4,4.17-5.8,3.29-3.76,2.95-2.5-.48,1.8h0ZM78.97,51.41c-1.61,2.6-3.99,5.97-5.25,7.45-1.25,1.47-3.9,5.3-5.8,8.4-1.93,3.15-5.74,9.1-8.51,13.3-5.14,7.8-9.32,15.1-17.22,30.1-5.06,9.6-7.27,12.52-7.27,9.6,0-3.88,5.17-20.9,8.29-27.3,5.07-10.4,13.14-23.27,18.18-29,3.96-4.5,18.86-17.3,20.13-17.3.22,0-.94,2.15-2.55,4.75h0ZM204.52,48.96c1.18,1.18-2.1,4.78-15.4,16.9-8,7.29-16.54,14.9-18.9,16.84-10.9,8.97-44.89,52.28-49.17,62.66-1.98,4.8-.81,8.3,2.77,8.3,2.53,0,3.46-.9,7.22-7,18.54-30,27.84-41.8,50.98-64.64,10.7-10.57,22.45-21.7,26.2-24.84,7.53-6.3,6.6-6.13,20.2-3.48,7.9,1.54,10.77,2.71,9.96,4.06-.36.6-3.01,2.65-5.81,4.5-2.81,1.85-7.65,5.49-10.65,8-3.01,2.52-9.8,8.08-15,12.29-13.5,10.92-51.2,46.3-59.26,55.61-5.71,6.6-6.79,8.4-6.54,10.95.23,2.3.87,3.12,2.6,3.35,1.85.24,6.5-4,23.89-21.8,34.19-35,53.8-52.81,75.41-68.49,9.2-6.68,13.75-9.51,15.3-9.51,1.5,0,10.59,5.86,10.54,6.8-.02.39-3.64,3.6-8.14,7.22-39.5,31.8-84.8,72.23-84.8,75.68,0,.7,1.1,1.3,2.4,1.3,2.67,0,13.1-8.49,44.2-36.01,11.5-10.17,23.6-20.74,26.9-23.49,3.32-2.77,9.95-8.46,14.85-12.75,5.3-4.64,9.73-7.75,11.05-7.75,2.7,0,16.2,13.25,15.18,14.9-.37.6-1.09,1.1-1.58,1.1-2.46,0-26.2,18.46-43,33.45-35.6,31.76-53.51,53.2-45.4,54.34,1.67.24,3.06-.99,5.79-5.09,7.95-11.96,55.31-55.3,76.21-69.75,1.16-.8,4.6-3.35,7.7-5.7,3.1-2.35,6.05-4.25,6.6-4.25,1.3,0,9.12,9.7,9.11,11.3,0,.66-3.51,3.58-7.81,6.51-32.4,22.04-51.74,38.07-58.27,48.29-3,4.7-3.06,5-1.5,7.4,2.74,4.19,5.03,3.2,10.93-4.7,9.65-12.93,19.24-21.56,41.64-37.46,5.2-3.69,11.47-8.24,13.85-10.04,2.4-1.82,4.64-3.3,5-3.3s2.9,3.9,5.6,8.6l4.95,8.6-2.45,1.9c-1.3,1.01-2.85,1.9-3.3,1.9s-5.75,2.95-11.65,6.5c-5.9,3.55-11.16,6.5-11.6,6.5-1.58,0-20.51,13.2-23.81,16.6-2.81,2.9-3.3,3.97-2.49,5.5,1.38,2.62,3.8,2.33,8.9-1.08,20.5-13.71,47.62-30.02,49.9-30.02.57,0,1.49.9,2.15,2.1.88,1.6.79,2.5-.36,3.8-2.49,2.8-3.75,5.83-3.1,7.5.52,1.34,1.17,1.18,4.07-1.05,1.9-1.46,3.55-2.47,3.67-2.25,2.64,4.7,4.71,9.98,4.23,10.8-.34.58-1.55,1.57-2.55,2.1-1.77.93-1.86.65-1.3-3.95l.6-4.95-3.4.95c-1.9.53-3.53.95-3.7.95-.84,0,.01,12.8,1.24,18.6.8,3.8,1.73,8.58,2.06,10.65.34,2.1,1.15,3.75,1.85,3.75s2.48-2.35,4-5.25l2.75-5.25-.7,12.5c-.38,6.86-.84,29.5-1,50.2-.23,29.4-.66,39.75-1.95,47-.91,5.1-1.81,10.79-2,12.6-.52,4.9-3.5,18.08-5.07,22.4-.76,2.1-1.38,4.43-1.38,5.2s-1.85,6.2-4.13,12.1c-4.55,11.8-12.37,24.34-21.38,34.3-4.98,5.5-24.3,21.2-26.09,21.2-.33,0-2.5,1.28-4.8,2.82-6.86,4.62-7.6,5.02-22.2,12.22-7.8,3.85-14.66,6.95-15.35,6.95s-2.65.61-4.45,1.4c-9.1,3.99-30.4,7.27-38.6,5.94-3.4-.55-4-1.01-4-3.05,0-2.72-1.4-3.43-11.5-5.78-28-6.54-41.41-11.61-55.6-21.03-10.64-7.07-29.16-26.08-37.18-38.18-10.54-15.9-22.67-40.7-24.1-49.3-.23-1.36-1.12-5-1.95-8-2.63-9.41-3.62-23.5-3.51-50,.11-25.6,1.25-38.17,4.25-46.8.77-2.2,1.22-4.18,1.02-4.4-.48-.51,2.87-10.6,5.24-15.8,6.02-13.2,15.63-31,16.73-31,.16,0-1,3.75-2.55,8.25-1.56,4.5-3.03,9.16-3.25,10.25-.22,1.1-1.12,4.45-2,7.45s-1.6,6.93-1.6,8.75c0,3,.25,3.3,2.8,3.3,1.5,0,3.4-.58,4.1-1.25,1.08-1.04,1.18-.65.6,2.25-.38,1.9-1.04,3.96-1.43,4.5-1.47,2-8.22,19.7-8.73,22.9-.42,2.6-.05,3.75,1.72,5.4,1.2,1.12,2.58,1.89,2.95,1.65.38-.24,1.7-3.3,2.9-6.7,1.2-3.4,2.79-7.62,3.5-9.25.74-1.7,1.76-4.08,2.37-5.5,10.32-24.19,18.8-37.1,46.32-70.6,11.58-14.1,56.61-59.04,66.91-66.79,5.5-4.14,6.88-4.74,9.8-4.26,1.9.31,3.58.73,3.8.95h0ZM285.82,53.38c4.7,3.1,11.21,8.17,14.35,11.17,5.4,5.17,5.65,5.61,4.1,7.3-.92,1-1.96,1.8-2.35,1.8-1,0-26-24.13-26-25.1,0-1.49,1.2-.91,9.9,4.83h0ZM306.32,54.48c10,5.76,12.01,7.68,9.2,8.77-1.51.59-15.46-8.59-18.98-12.49-2.89-3.19-.92-2.44,9.78,3.72h0ZM327.18,75.56c10.98,11.5,9.56,12.36-1.77,1.07-5.2-5.18-9.5-9.83-9.5-10.27,0-1.7,3.92,1.5,11.27,9.2h0ZM317.11,78.86c2.14,2.3,3.81,4.41,3.81,4.8,0,1.4-7.29,7.11-8.05,6.3-.41-.44-2.39-3.4-4.35-6.5l-3.6-5.7,2.2-1.52c3.57-2.47,5.81-1.88,9.99,2.62h0ZM335.97,99.56c1.61,2.4,2.95,4.76,2.95,5.2,0,1.39-9.3,6.87-11.7,6.88-1.71.01-3.13-1.68-6.4-7.68l-4.2-7.7,2.2-1.55c1.22-.86,3.4-2.53,4.9-3.75l2.7-2.2,3.3,3.2c1.8,1.75,4.64,5.2,6.25,7.6h0ZM27.37,118.81c-.91,3.5-1.81,7.2-2,8.25-.2,1.07-.98,3.7-1.79,6-4.09,11.63-5.64,55.7-2.44,69.6,2.47,10.72.15,9.2-3.05-2-4.3-15.05-5.17-21.3-5.17-37.1s1.07-23.3,5.33-38.9c2.16-7.9,3.26-10.47,6.92-16.1l3.25-5,.3,4.45c.17,2.45-.44,7.3-1.35,10.8h0ZM343.92,115.16c0,3.23-.4,3.7-5.1,6.07-5.9,2.97-9.24,2.84-9.69-.37-.17-1.2.17-2.2.74-2.2s3.15-1.53,5.75-3.43c6.3-4.6,8.3-4.62,8.3-.07h0ZM350.12,128.16c1.82,4.7,1.83,5.06.15,8.8-1.84,4.1-4.76,6.74-7.35,6.65-.83-.03-2.99-3-4.85-6.7l-3.35-6.65,2.9-2.39c3.1-2.55,8.31-5.14,9.7-4.82.5.11,1.75,2.41,2.8,5.11h0ZM48.32,132.41c-.33,3.2-1.02,8.85-1.55,12.75-.53,3.88-1.31,11.9-1.75,18-.64,8.8-1.34,12.14-3.5,16.7-2.65,5.6-6.93,10.8-5.18,6.3.43-1.09,1.17-6.3,1.65-11.5.77-8.39,1.37-13.4,3.41-28.2,1.39-10.1,4.54-19.8,6.42-19.8.73,0,.9,1.95.5,5.75h0ZM37.92,139.26c0,.8-.47,1.22-1,.9-.6-.36-.78-.96-.45-1.5.87-1.44,1.45-1.2,1.45.6h0ZM352.36,153.96c-.57,7.4-2.05,21.34-2.95,27.7-.28,1.96-1.11,5.7-1.89,8.5l-1.4,5-.13-11.5c-.13-11.8-1.44-27.27-2.56-30.2-.45-1.19.49-2.27,3.69-4.2,2.4-1.45,4.63-2.6,5.05-2.6s.5,3.3.19,7.3h0ZM34.42,159.91c-.33,4.52-1.03,12.7-1.55,18.1-.52,5.4-.95,12.54-.95,15.8,0,3.9-.59,6.83-1.7,8.5-1.53,2.3-1.77,2.36-2.44.65-1.75-4.48-.33-25.7,2.8-41.8,1.71-8.8,1.96-9.5,3.45-9.5.64,0,.79,2.95.4,8.25h0ZM37.9,206.46c-.37,2-1.19,4.62-1.79,5.7-.61,1.11-1.89,4.1-2.87,6.7-2,5.3-2.76,5.82-3.66,2.5-1.59-5.9-.72-10.22,2.92-14.5,4.51-5.3,6.33-5.43,5.4-.4h0ZM38.47,228.96c.13.9-.41,1.7-1.15,1.7-1.7,0-2.74-1.71-1.89-3.1.9-1.45,2.74-.6,3.04,1.4h0ZM355.52,245.1c4.7,1.96,6.29,5.57,4,9.06-1.67,2.54-8.6,6.47-11.5,6.51-2.02.03-1.1-14.75,1-16.08,1.96-1.24,2.4-1.2,6.5.51h0ZM256.92,420.16c0,.6-5,3.79-15,9.57-4.1,2.37-8.41,5.1-9.5,6.03-2.87,2.43-9.1,5.75-13.9,7.4l-4.1,1.41,2.6-2.2c12.03-10.19,20.8-15.88,32.9-21.34,2.6-1.17,7-1.71,7-.86h0ZM259.92,429.06c0,1.5-30.8,17.19-31.8,16.2-.51-.51,5.2-4.04,13.1-8.11,3.2-1.65,7.01-3.63,8.5-4.41,2.2-1.16,8.76-3.81,10-4.04.12-.02.2.12.2.36h0ZM289.82,436.01l2.2,2.35-3.55,2.7c-1.92,1.46-5.25,3.41-7.25,4.25-5.92,2.48-14.8,6.47-22.8,10.26-2.85,1.35,3.8-4.63,9.5-8.54,3.6-2.47,9.18-6.4,12.5-8.81,3.3-2.39,6.27-4.39,6.6-4.45.33-.06,1.58.95,2.8,2.25h0ZM298.89,447.66c1.37,2.55.42,4.4-4.68,9.09-4.9,4.51-9.89,7.91-11.6,7.91-.73,0-2.15.57-3.25,1.3-1.1.74-3.25,1.84-4.95,2.55l-3,1.25,3.5-3c1.9-1.63,3.75-3.02,4.05-3.05.31-.03,4.04-4.05,8.4-9.05,4.36-5,8.43-9,9.15-9s1.78.9,2.38,2h0ZM278.92,453.46c0,.43-1.95,1.88-4.25,3.15-2.3,1.27-4.94,2.92-5.75,3.6-.83.69-5.5,2.83-10.5,4.8-5,1.97-10.69,4.26-12.8,5.14-5.31,2.23-3.7.04,2.1-2.85,2.58-1.28,7.5-3.76,10.9-5.49,3.4-1.73,6.56-3.15,7-3.15s3.5-1.32,6.8-2.93c6.9-3.37,6.5-3.23,6.5-2.27h0Z"/>
    <path d="M145.12,437.22c-1.2.84-3,1.72-3.95,1.94-.96.22-3.65,1.33-5.95,2.45s-4.67,2.05-5.25,2.05-1.8.41-2.8.95c-.97.53-5.2,2.55-9.5,4.55-4.3,2-9.17,4.8-10.95,6.3-1.78,1.5-5.9,4.5-9.3,6.77-12,8.02-20.36,28.52-11.6,28.44.88,0,5.2-2.67,9.6-5.92,10.6-7.82,27.21-19.06,31.4-21.25,4.1-2.14,9.1-3.32,9.1-2.15,0,1.34-11.8,12.54-18,17.07-3.02,2.21-8.2,6.59-11.5,9.73-3.29,3.12-9.05,8.19-12.75,11.2-3.7,3.01-6.73,6-6.72,6.6.09,2.85,2.77,4.79,5.67,4.11,7.77-1.83,33.6-17.07,42.8-25.26,2.27-2.02,6.2-5.35,8.8-7.45,4.5-3.63,6.1-6.7,3.5-6.7-1.79,0-11.8,5.85-16.4,9.59-2.3,1.87-4.47,3.41-4.8,3.41s2.41-3.6,6.18-8.1c7.62-9.1,12.22-17.09,12.22-21.2,0-3.54-2-4.3-7.2-2.75-9.1,2.72-31.28,14.56-36.8,19.65-1.39,1.28-3.7,2.75-5.2,3.3l-2.7,1,2.01-3.4c3.52-5.95,10.69-11.53,20.69-16.12,15.2-6.98,16.63-7.65,18.2-8.48.83-.44,3.3-1.73,5.5-2.87,5.3-2.75,6.95-4.09,8.39-6.82,1.36-2.58.41-2.81-2.69-.64h0Z"/>
    <path d="M119.12,220.19c-3.8,3.2-5.57,10.27-4.96,19.87.51,8.1,2.2,11.43,7.17,14.1,3.79,2.04,6.6,1.62,11.6-1.75,10.95-7.38,10.7-27.86-.4-33.11-5-2.36-9.92-2.04-13.4.9h0Z"/>
    <path d="M242.02,220.56c-5.56,5.95-7.03,20.2-2.84,27.6,2.83,5,9.67,9.16,12.53,7.62,4.42-2.37,7.99-7.92,8.7-13.52,1.37-10.8-1.33-18.68-7.7-22.57-4.5-2.74-7.56-2.49-10.7.87h0Z"/>
    <path d="M51.52,228.36c-1.15,1.16-.71,18.07.49,18.81,1.82,1.12,2.18-.21,2.7-10.01.42-7.9.25-9.5-1-9.5-.8,0-1.82.33-2.19.7h0Z"/>
    <path d="M133.62,313.46c-1.45,1.5-2.7,3.31-2.7,3.9,0,2.13,10.2,10.52,15.8,12.99,10.51,4.65,25.5,7.9,41.3,8.95,21.1,1.4,52.09-6.43,54.42-13.75,1.69-5.3-2.12-7.69-10.32-6.49-39.6,5.82-57.7,4.68-85.1-5.34-4.6-1.68-8.92-3.07-9.55-3.07s-2.4,1.3-3.85,2.8h0Z"/>
  </g>
</svg>